PathFileType	4	(X/Y/Z)	/Users/itak/Documents/Research/Walk-IL/dataset/trc/00119_00007.trc
DataRate	CameraRate	NumFrames	NumMarkers	Units	OrigDataRate	OrigDataStartFrame	OrigNumFrames
100.000000	100.000000	4	53	mm	100.000000	179	716
Frame#	Time	RPSI			LPSI			L3			STRN			T10			C7			CLAV			RBAK			LBAK			LSHO			LUPA			LAEL			LAOL			LWTS			LWPS			LFRA			LIFD			LHPS			LHTS			RSHO			RUPA			RAEL			RAOL			RWTS			RWPS			RFRA			RIFD			RHTS			RHPS			RBHD			LFHD			RFHD			LBHD			LHIP			RHIP			RASI			LASI			LKNE			LTHI			LANK			LTIP			LTOE			LMT1			LMT5			LHEE			RKNE			RTHI			RANK			RTIP			RTOE			RMT1			RMT5			RHEE			
		X1	Y1	Z1	X2	Y2	Z2	X3	Y3	Z3	X4	Y4	Z4	X5	Y5	Z5	X6	Y6	Z6	X7	Y7	Z7	X8	Y8	Z8	X9	Y9	Z9	X10	Y10	Z10	X11	Y11	Z11	X12	Y12	Z12	X13	Y13	Z13	X14	Y14	Z14	X15	Y15	Z15	X16	Y16	Z16	X17	Y17	Z17	X18	Y18	Z18	X19	Y19	Z19	X20	Y20	Z20	X21	Y21	Z21	X22	Y22	Z22	X23	Y23	Z23	X24	Y24	Z24	X25	Y25	Z25	X26	Y26	Z26	X27	Y27	Z27	X28	Y28	Z28	X29	Y29	Z29	X30	Y30	Z30	X31	Y31	Z31	X32	Y32	Z32	X33	Y33	Z33	X34	Y34	Z34	X35	Y35	Z35	X36	Y36	Z36	X37	Y37	Z37	X38	Y38	Z38	X39	Y39	Z39	X40	Y40	Z40	X41	Y41	Z41	X42	Y42	Z42	X43	Y43	Z43	X44	Y44	Z44	X45	Y45	Z45	X46	Y46	Z46	X47	Y47	Z47	X48	Y48	Z48	X49	Y49	Z49	X50	Y50	Z50	X51	Y51	Z51	X52	Y52	Z52	X53	Y53	Z53	

180	1.79	536.9938354492188	1114.071044921875	979.9675903320312	450.8815307617188	1117.571533203125	875.3111572265625	484.2057189941406	1154.692626953125	928.3734741210938	665.602783203125	1347.521118164062	777.803955078125	461.7084045410156	1309.892700195312	941.3799438476562	491.5523071289062	1599.009033203125	891.0314331054688	638.7640991210938	1484.080078125	790.6503295898438	498.7315368652344	1421.238403320312	1002.638854980469	421.9254150390625	1577.306762695312	814.605224609375	450.4856567382812	1557.471069335938	709.921630859375	394.8959350585938	1426.713623046875	664.637939453125	405.047119140625	1209.649780273438	623.512939453125	388.1112365722656	1188.709716796875	708.03125	539.248291015625	969.8045654296875	575.2839965820312	461.6226196289062	931.708984375	598.9036865234375	428.2125244140625	1098.808227539062	597.711669921875	587.1842041015625	781.93505859375	567.83642578125	494.2686157226562	862.3217163085938	574.0629272460938	556.2479248046875	884.1333618164062	548.6953735351562	647.2332153320312	1583.59130859375	999.3745727539062	671.7896728515625	1514.247436523438	1064.668823242188	674.2938232421875	1222.074340820312	1109.674072265625	612.3333129882812	1215.269775390625	1038.799194335938	790.8955688476562	981.583251953125	1017.713256835938	750.5377197265625	963.6502685546875	1087.2412109375	705.5294189453125	1149.106079101562	1109.568725585938	810.7598876953125	788.8185424804688	989.6558837890625	824.3063354492188	875.519775390625	1005.561157226562	788.0640869140625	865.8372192382812	1069.101684570312	603.0535888671875	1783.98876953125	893.49609375	570.602294921875	1800.030639648438	674.9830322265625	680.60986328125	1828.023681640625	737.91162109375	484.7736511230469	1760.671752929688	832.1583862304688	449.6696166992188	1024.63720703125	733.1190795898438	714.0344848632812	1022.566284179688	982.3539428710938	737.9312133789062	1093.120727539062	891.1907348632812	559.7353515625	1087.455932617188	695.360595703125	545.4050903320312	522.214599609375	804.177001953125	493.9669189453125	663.3539428710938	773.2088012695312	506.9065246582031	36.50070953369141	943.681884765625	475.1121215820312	273.6674499511719	871.0346069335938	737.3137817382812	38.49283981323242	886.5234375	681.2667846679688	43.98080444335938	953.343505859375	604.5886840820312	39.48232650756836	864.2410278320312	475.1143798828125	39.24118423461914	1029.95166015625	825.7144165039062	562.5084228515625	845.75830078125	780.0240478515625	829.5563354492188	922.9306640625	735.0816040039062	87.67329406738281	1064.46240234375	818.0107421875	436.1563720703125	904.3821411132812	874.3184204101562	59.51421737670898	881.9000854492188	802.2415771484375	50.01716995239258	886.3081665039062	848.2146606445312	67.28762817382812	997.7747192382812	660.6600341796875	94.31513977050781	1064.507446289062	
181	1.8	545.6337280273438	1113.93994140625	974.436279296875	457.8229064941406	1116.937377929688	871.4154052734375	491.185791015625	1154.079956054688	923.5382690429688	670.2650756835938	1346.916381835938	770.0511474609375	468.8880920410156	1309.467041015625	936.7252197265625	498.0179748535156	1598.478881835938	885.6312255859375	643.801025390625	1483.505004882812	783.3403930664062	506.7091369628906	1420.688354492188	997.1817626953125	427.3283081054688	1576.701782226562	810.1842041015625	454.5148010253906	1556.931518554688	705.1482543945312	398.7901306152344	1426.0751953125	660.3480834960938	410.0994873046875	1209.113891601562	618.2266845703125	394.0408020019531	1187.704711914062	702.8251342773438	546.3267822265625	970.9755249023438	567.5774536132812	469.3453674316406	931.8759765625	591.635498046875	434.2746887207031	1098.75146484375	591.5255126953125	596.3681030273438	783.7296142578125	558.6968994140625	502.5464782714844	862.998291015625	566.175048828125	564.120361328125	885.654296875	540.3790283203125	655.1727905273438	1582.979248046875	991.9130249023438	680.5208129882812	1513.672973632812	1056.9208984375	683.1881103515625	1221.562866210938	1102.133666992188	620.4153442382812	1214.763549804688	1031.865844726562	798.666748046875	980.90869140625	1009.1826171875	759.0074462890625	963.049072265625	1079.112548828125	714.4346923828125	1148.569702148438	1101.75244140625	818.2529907226562	788.1129760742188	981.162353515625	831.978759765625	874.8410034179688	996.8228149414062	796.30517578125	865.2183227539062	1060.734008789062	609.6141967773438	1783.39599609375	886.7960205078125	575.3112182617188	1799.275390625	668.3922119140625	685.9176025390625	1827.182006835938	730.2674560546875	490.8662109375	1760.160766601562	826.3926391601562	453.4737854003906	1023.823669433594	729.348388671875	722.777099609375	1022.675537109375	973.5455932617188	744.7420043945312	1092.879272460938	881.8405151367188	562.9049682617188	1086.623046875	689.2338256835938	547.881591796875	521.3939819335938	801.3012084960938	496.8092651367188	662.7477416992188	770.3416748046875	506.9115905761719	36.6134147644043	943.7193603515625	476.3494262695312	273.5982971191406	869.8707885742188	737.4014892578125	38.37325668334961	886.4468383789062	681.2562866210938	44.0388298034668	953.3327026367188	604.5393676757812	39.41844940185547	864.138671875	475.1044921875	39.58612823486328	1029.973388671875	834.3492431640625	564.204833984375	832.5758056640625	788.6651000976562	830.4927978515625	912.1786499023438	761.01806640625	81.27388763427734	1039.24462890625	831.2405395507812	436.1963195800781	887.75537109375	894.3643188476562	61.52267074584961	851.3739624023438	822.7214965820312	50.22748565673828	857.9868774414062	872.1617431640625	65.4730224609375	968.1491088867188	686.5672607421875	86.26256561279297	1042.009033203125	
182	1.81	554.2295532226562	1113.739501953125	968.75439453125	464.7362365722656	1116.218505859375	867.3766479492188	498.1958312988281	1153.392944335938	918.533935546875	674.9760131835938	1346.21826171875	762.2498779296875	476.1628723144531	1308.960327148438	931.8889770507812	504.4985961914062	1597.868286132812	880.1055297851562	648.8667602539062	1482.833862304688	775.9503784179688	514.7313232421875	1420.065673828125	991.6109008789062	432.797119140625	1575.983520507812	805.6580200195312	458.5828247070312	1556.276123046875	700.29052734375	402.6903686523438	1425.294799804688	656.0565795898438	415.0296630859375	1208.4326171875	613.0675048828125	399.9224548339844	1186.600830078125	697.7586059570312	553.23583984375	972.0294189453125	559.97998046875	476.9384155273438	931.9310913085938	584.541259765625	440.1795349121094	1098.49072265625	585.5520629882812	605.3819580078125	785.4423217773438	549.67236328125	510.6680297851562	863.5656127929688	558.4498901367188	571.793701171875	887.0579223632812	532.1853637695312	663.1234130859375	1582.29296875	984.3283081054688	689.2622680664062	1513.026489257812	1049.044677734375	692.1201782226562	1220.989868164062	1094.476806640625	628.47021484375	1214.197021484375	1024.837646484375	806.3806762695312	980.1137084960938	1000.650817871094	767.4240112304688	962.3655395507812	1070.978393554688	723.3167114257812	1147.963623046875	1093.864379882812	825.59765625	787.269287109375	972.7183227539062	839.5291137695312	874.0145263671875	988.1151123046875	804.4441528320312	864.4932250976562	1052.39111328125	616.17041015625	1782.709350585938	879.9614868164062	580.0101318359375	1798.443725585938	661.7308959960938	691.2166137695312	1826.259521484375	722.5393676757812	496.9407348632812	1759.573120117188	820.5484619140625	457.3965148925781	1022.932922363281	725.4627685546875	731.4013061523438	1022.6591796875	964.714599609375	751.5018920898438	1092.520385742188	872.5071411132812	566.1674194335938	1085.70654296875	683.0751342773438	550.5773315429688	520.5570678710938	798.3395385742188	499.8762512207031	662.0858764648438	767.2975463867188	506.920166015625	36.72916030883789	943.7623901367188	477.7320251464844	273.5169067382812	868.6215209960938	737.4910888671875	38.26779937744141	886.3634643554688	681.2561645507812	44.08515930175781	953.3173828125	604.5042114257812	39.38256072998047	864.0267333984375	475.1388549804688	39.95510482788086	1030.016845703125	842.677001953125	565.6891479492188	819.7803344726562	797.0770874023438	831.2462158203125	901.6034545898438	785.92431640625	75.21854400634766	1012.96630859375	843.9591674804688	436.1760559082031	871.122802734375	912.642822265625	63.76816558837891	820.030029296875	841.5343017578125	50.82231903076172	828.8738403320312	894.6323852539062	63.76753997802734	937.4607543945312	711.52294921875	78.60444641113281	1018.451049804688	
183	1.82	562.751708984375	1113.453125	962.9186401367188	471.5904541015625	1115.414794921875	863.1731567382812	505.264404296875	1152.636596679688	913.3603515625	679.7448120117188	1345.4248046875	754.4011840820312	483.5133666992188	1308.363647460938	926.869140625	511.0008239746094	1597.172119140625	874.4506225585938	653.9725341796875	1482.065307617188	768.4779663085938	522.794921875	1419.370483398438	985.9217529296875	438.3388366699219	1575.163452148438	801.0173950195312	462.7011108398438	1555.5087890625	695.3336181640625	406.6173400878906	1424.375122070312	651.7490844726562	419.847412109375	1207.60791015625	608.032958984375	405.7637634277344	1185.400024414062	692.8285522460938	559.9646606445312	972.9550170898438	552.491455078125	484.3907165527344	931.8702392578125	577.6278686523438	445.9055786132812	1097.992797851562	579.834228515625	614.19921875	787.0574951171875	540.7581787109375	518.6187744140625	864.0153198242188	550.892578125	579.2464599609375	888.3323974609375	524.1119384765625	671.0756225585938	1581.529174804688	976.6217041015625	698.0053100585938	1512.304565429688	1041.042358398438	701.0928955078125	1220.354125976562	1086.706420898438	636.46630859375	1213.570434570312	1017.731323242188	814.0375366210938	979.196533203125	992.1045532226562	775.8032836914062	961.600830078125	1062.83642578125	732.1858520507812	1147.28759765625	1085.902465820312	832.7848510742188	786.2858276367188	964.31005859375	846.947265625	873.0380859375	979.4199829101562	812.4953002929688	863.6609497070312	1044.064086914062	622.7411499023438	1781.924072265625	872.9622192382812	584.7069091796875	1797.540161132812	654.997314453125	696.5138549804688	1825.258056640625	714.7275390625	502.9971923828125	1758.913696289062	814.6241455078125	461.4481201171875	1021.958190917969	721.44189453125	739.9047241210938	1022.510437011719	955.88134765625	758.2160034179688	1092.0419921875	863.2058715820312	569.5404663085938	1084.704223632812	676.8822021484375	553.4981079101562	519.6948852539062	795.277099609375	503.1733703613281	661.36572265625	764.07421875	506.9322814941406	36.8466796875	943.8190307617188	479.2528381347656	273.4190063476562	867.2899169921875	737.580322265625	38.18406295776367	886.2701416015625	681.2718505859375	44.1241455078125	953.2907104492188	604.478271484375	39.36132049560547	863.9171752929688	475.2083129882812	40.36557769775391	1030.084838867188	850.7115478515625	566.9526977539062	807.3871459960938	805.2728881835938	831.799072265625	891.2395629882812	809.7356567382812	69.5347900390625	985.6992797851562	856.1445922851562	436.1119995117188	854.5469360351562	929.2210083007812	66.31202697753906	788.044921875	858.7427978515625	51.82980346679688	799.1143188476562	915.6370239257812	62.24895858764648	905.8558349609375	735.4747924804688	71.38445281982422	993.9124145507812	
